<svg width="32" height="32" viewBox="0 0 32 32" fill="none" xmlns="http://www.w3.org/2000/svg">
<path fill-rule="evenodd" clip-rule="evenodd" d="M28.1366 3.50651C28.8087 3.57495 29.3332 4.1431 29.3332 4.83333V22.1667C29.3332 22.8569 28.8087 23.425 28.1366 23.4935L27.9998 23.5H16.9998V26.5H21.3332C21.8855 26.5 22.3332 26.9477 22.3332 27.5C22.3332 28.0523 21.8855 28.5 21.3332 28.5H10.6665C10.1142 28.5 9.6665 28.0523 9.6665 27.5C9.6665 26.9477 10.1142 26.5 10.6665 26.5H14.9998V23.5H3.99984C3.3096 23.5 2.74146 22.9756 2.67301 22.3034L2.6665 22.1667V4.83333C2.6665 4.09695 3.26346 3.5 3.99984 3.5H27.9998L28.1366 3.50651ZM4.6665 21.5H27.3332V5.5H4.6665V21.5Z" fill="#727883"/>
</svg>
